<svg xmlns="http://www.w3.org/2000/svg" xmlns:xlink="http://www.w3.org/1999/xlink" aria-hidden="true" role="img" class="iconify iconify--logos" width="31.88" height="32" preserveAspectRatio="xMidYMid meet" viewBox="0 0 256 257"><defs><linearGradient id="IconifyId1813088fe1fbc01fb466" x1="-.828%" x2="57.636%" y1="7.652%" y2="78.411%"><stop offset="0%" stop-color="#00ff9d"></stop><stop offset="100%" stop-color="#00cc7d"></stop></linearGradient><linearGradient id="IconifyId1813088fe1fbc01fb467" x1="43.376%" x2="50.316%" y1="2.242%" y2="89.03%"><stop offset="0%" stop-color="#00ff9d"></stop><stop offset="8.333%" stop-color="#00ff9d"></stop><stop offset="100%" stop-color="#00cc7d"></stop></linearGradient></defs><path fill="url(#IconifyId1813088fe1fbc01fb466)" d="M255.153 37.938L134.897 252.976c-2.483 4.44-8.862 4.466-11.382.048L.875 37.958c-2.746-4.814 1.371-10.646 6.827-9.67l120.76 21.517a6.537 6.537 0 0 0 2.322-.004l117.783-21.01c4.503-.91 9.329 2.664 6.877 9.147" transform="translate(0 -1.638)"></path><path fill="url(#IconifyId1813088fe1fbc01fb467)" d="M185.432.063L96.44 17.501a3.268 3.268 0 0 0-2.166 2.175L.001 185.432a3.268 3.268 0 0 0 2.146 3.156L62.022 246.3c.783.753 1.79.118 2.108-.663l66.52-92.361c.527-1.012 1.16-1.48 1.84-.48L238.02 191.3c1.918-.96 1.11-4.652-1.428-4.83L93.085 173.72c-2.088-.144-2.416-2.349-.275-2.85L186.34.063a3.268 3.268 0 0 0-.908-3.23" transform="translate(0 -1.638)"></path></svg>
